<?xml version="1.0" encoding="utf-8"?>
<svg version="1.1" id="Brive-logo" xmlns="http://www.w3.org/2000/svg" xmlns:xlink="http://www.w3.org/1999/xlink" x="0px" y="0px"
	 width="748.6px" height="282px" viewBox="0 0 748.6 282" style="enable-background:new 0 0 748.6 282;" xml:space="preserve">
<style type="text/css">
	.st0{fill:#AADB1E;}
	.st1{fill:#5B6770;}
</style>
<path class="st0" d="M327.1,42.5c14.1,0,23.9,10.8,23.9,24.2s-9.9,23.9-23.9,23.9c-12.9,0.3-23.7-10-23.9-22.9c0-0.3,0-0.7,0-1
	C303.2,53.3,313.4,42.5,327.1,42.5"/>
<path class="st1" d="M122.4,173.6H92.6v42.6h29.8c13.4,0,23.5-6.6,23.5-21.1S135.8,173.6,122.4,173.6 M120.3,95.3H92.6v37.5h27.7
	c11.3,0,20-6,20-18.8S131.7,95.3,120.3,95.3 M50.3,54.5h70.3c36.9,0,63.2,21.8,63.2,53.9c0,22-9.5,36.6-24.1,44.4
	c17.9,8.6,29.8,24.4,29.8,48.2c0,33.4-28,56-67,56H50.3V54.5L50.3,54.5z"/>
<path class="st1" d="M242.3,124.8c7.1-11,18.5-19.1,35.1-19.1c3.9,0,7.8,0.3,11.6,0.9v43.2c-6.8-3.1-14.3-4.6-21.7-4.5
	c-14.3,0-24.1,9.8-25,25.6v59.7c0,14.6-11.8,26.4-26.4,26.4l0,0h-14.1V108.7h40.5L242.3,124.8L242.3,124.8z"/>
<path class="st1" d="M321,257h-14.1V108.7h40.5v121.9C347.4,245.2,335.6,257,321,257"/>
<path class="st1" d="M413.1,123.6l29.3,83.1l29.6-83.1c3.2-8.9,11.6-14.9,21.1-14.9h27.1L470.3,240c-3.9,10.2-13.7,17-24.7,17h-24.4
	l-56-148.3H392C401.5,108.7,410,114.7,413.1,123.6"/>
<path class="st1" d="M600.4,112.2c17.3,0,30.1,10.4,30.7,25.6h-64C569.1,123.9,582.5,112.2,600.4,112.2 M606.3,196.5
	c-20.8,0-35.7-11-39.3-28h100.7c1.5-6.4,2.3-12.8,2.4-19.4c0-38.4-26.5-70.6-69.4-70.6s-74.2,33.7-74.2,77.1
	c0,46.2,32.5,77.4,76.5,77.4c21.4,0,40.5-4.8,53.6-11.6l-8.5-14.4c-5.2-8.9-15.3-13.6-25.4-12C617.3,196.1,611.8,196.5,606.3,196.5"
	/>
<path class="st1" d="M685.8,78.3c2.1,0,4.3,0.6,6.1,1.6c2,1.1,3.6,2.6,4.6,4.6c2.2,3.9,2.2,8.6,0,12.5c-1.1,1.9-2.7,3.5-4.6,4.6
	c-3.8,2.2-8.6,2.2-12.4,0c-1.9-1.1-3.5-2.7-4.6-4.6c-2.2-3.9-2.2-8.6,0-12.5c1.1-1.9,2.7-3.5,4.6-4.6
	C681.5,78.8,683.6,78.3,685.8,78.3L685.8,78.3z M685.8,80.7c-1.7,0-3.4,0.5-4.9,1.3c-1.6,0.9-2.9,2.1-3.7,3.7c-1.8,3.1-1.8,6.9,0,10
	c0.9,1.6,2.1,2.8,3.7,3.7c3.1,1.8,6.9,1.8,10,0c1.6-0.9,2.8-2.2,3.7-3.7c1.8-3.1,1.8-6.9,0-10c-0.9-1.6-2.2-2.9-3.8-3.7
	C689.3,81.2,687.6,80.7,685.8,80.7L685.8,80.7z M680.2,97.4V84.2h2.7c2.5,0,3.9,0,4.2,0c0.7,0,1.4,0.2,2.1,0.5
	c0.5,0.3,0.9,0.8,1.2,1.3c0.3,0.6,0.5,1.2,0.5,1.9c0,0.9-0.3,1.8-0.9,2.4c-0.7,0.7-1.6,1.2-2.6,1.3c0.3,0.1,0.6,0.3,0.9,0.5
	c0.3,0.3,0.6,0.6,0.9,1c0.1,0.1,0.4,0.7,1,1.6l1.6,2.7h-3.3l-1.1-2.2c-0.4-1-1.1-1.9-1.8-2.7c-0.5-0.4-1.2-0.6-1.8-0.6h-0.7v5.4
	L680.2,97.4z M682.9,89.9h1.1c1,0,1.9,0,2.9-0.2c0.4-0.1,0.7-0.3,0.9-0.6c0.4-0.6,0.4-1.4,0-2c-0.2-0.3-0.5-0.5-0.9-0.6
	c-1-0.2-1.9-0.2-2.9-0.2h-1.1V89.9L682.9,89.9z"/>
<path class="st0" d="M539.5,67.4c-0.8,1.2-4.2,5.6-0.7,8.6l4.9,5.7c1.1,1.3,3.1,1.4,4.3,0.3c0.1-0.1,0.2-0.2,0.3-0.3
	c7.4-7.5,32.8-28.3,81-18.8c3.6,0.6,7.1-1.2,8.6-4.5L650,33.6c0.9-1.9,0.1-4.2-1.8-5.1c-0.2-0.1-0.4-0.2-0.6-0.2
	C631.8,24.4,575.9,14.8,539.5,67.4L539.5,67.4z"/>
</svg>
